<svg width="314" height="186" viewBox="0 0 314 186" fill="none" xmlns="http://www.w3.org/2000/svg">
<rect x="0.395137" y="0.395137" width="313.21" height="185.21" rx="5.92705" fill="#EAEFE5"/>
<rect x="0.395137" y="0.395137" width="313.21" height="185.21" rx="5.92705" stroke="#C8D4BD" stroke-width="0.790274"/>
<path d="M118.817 135.818H120.358V142.515C120.358 143.228 120.19 143.859 119.856 144.409C119.521 144.956 119.05 145.387 118.444 145.702C117.837 146.013 117.126 146.169 116.311 146.169C115.499 146.169 114.79 146.013 114.183 145.702C113.577 145.387 113.106 144.956 112.771 144.409C112.436 143.859 112.269 143.228 112.269 142.515V135.818H113.805V142.391C113.805 142.851 113.906 143.261 114.108 143.619C114.314 143.977 114.604 144.258 114.979 144.464C115.353 144.666 115.797 144.767 116.311 144.767C116.828 144.767 117.274 144.666 117.648 144.464C118.026 144.258 118.314 143.977 118.513 143.619C118.715 143.261 118.817 142.851 118.817 142.391V135.818ZM122.472 148.864V138.364H123.924V139.602H124.048C124.134 139.442 124.258 139.259 124.421 139.05C124.583 138.841 124.809 138.659 125.097 138.503C125.385 138.344 125.766 138.264 126.24 138.264C126.857 138.264 127.407 138.42 127.891 138.732C128.375 139.043 128.754 139.492 129.029 140.079C129.308 140.665 129.447 141.371 129.447 142.197C129.447 143.022 129.31 143.73 129.034 144.32C128.759 144.906 128.382 145.359 127.901 145.677C127.42 145.992 126.872 146.149 126.255 146.149C125.791 146.149 125.412 146.071 125.117 145.915C124.825 145.76 124.596 145.577 124.431 145.369C124.265 145.16 124.137 144.974 124.048 144.812H123.958V148.864H122.472ZM123.929 142.182C123.929 142.719 124.007 143.189 124.162 143.594C124.318 143.998 124.543 144.315 124.838 144.543C125.133 144.769 125.495 144.881 125.922 144.881C126.366 144.881 126.738 144.764 127.036 144.528C127.334 144.29 127.56 143.967 127.712 143.559C127.868 143.151 127.946 142.692 127.946 142.182C127.946 141.678 127.869 141.226 127.717 140.825C127.568 140.424 127.342 140.107 127.041 139.875C126.743 139.643 126.37 139.527 125.922 139.527C125.491 139.527 125.127 139.638 124.828 139.86C124.533 140.082 124.31 140.392 124.157 140.79C124.005 141.187 123.929 141.652 123.929 142.182ZM132.599 135.818V146H131.113V135.818H132.599ZM137.816 146.154C137.1 146.154 136.475 145.99 135.941 145.662C135.408 145.334 134.993 144.875 134.698 144.285C134.403 143.695 134.256 143.005 134.256 142.217C134.256 141.424 134.403 140.732 134.698 140.138C134.993 139.545 135.408 139.085 135.941 138.756C136.475 138.428 137.1 138.264 137.816 138.264C138.531 138.264 139.156 138.428 139.69 138.756C140.223 139.085 140.638 139.545 140.933 140.138C141.228 140.732 141.375 141.424 141.375 142.217C141.375 143.005 141.228 143.695 140.933 144.285C140.638 144.875 140.223 145.334 139.69 145.662C139.156 145.99 138.531 146.154 137.816 146.154ZM137.82 144.906C138.285 144.906 138.669 144.784 138.974 144.538C139.279 144.293 139.504 143.967 139.65 143.559C139.799 143.151 139.874 142.702 139.874 142.212C139.874 141.724 139.799 141.277 139.65 140.869C139.504 140.458 139.279 140.129 138.974 139.88C138.669 139.631 138.285 139.507 137.82 139.507C137.353 139.507 136.965 139.631 136.657 139.88C136.352 140.129 136.125 140.458 135.976 140.869C135.83 141.277 135.757 141.724 135.757 142.212C135.757 142.702 135.83 143.151 135.976 143.559C136.125 143.967 136.352 144.293 136.657 144.538C136.965 144.784 137.353 144.906 137.82 144.906ZM145.257 146.169C144.773 146.169 144.335 146.08 143.944 145.901C143.553 145.718 143.243 145.455 143.015 145.11C142.789 144.765 142.676 144.343 142.676 143.842C142.676 143.411 142.759 143.057 142.925 142.778C143.091 142.5 143.315 142.28 143.596 142.117C143.878 141.955 144.193 141.832 144.541 141.749C144.889 141.666 145.243 141.603 145.605 141.56C146.062 141.507 146.433 141.464 146.718 141.431C147.003 141.395 147.211 141.337 147.34 141.257C147.469 141.178 147.534 141.048 147.534 140.869V140.835C147.534 140.4 147.411 140.064 147.166 139.825C146.924 139.587 146.563 139.467 146.082 139.467C145.582 139.467 145.187 139.578 144.899 139.8C144.614 140.019 144.417 140.263 144.307 140.531L142.91 140.213C143.076 139.749 143.318 139.375 143.636 139.089C143.958 138.801 144.327 138.592 144.745 138.463C145.162 138.33 145.601 138.264 146.062 138.264C146.367 138.264 146.69 138.301 147.032 138.374C147.376 138.443 147.698 138.572 147.996 138.761C148.298 138.95 148.545 139.22 148.737 139.572C148.929 139.92 149.025 140.372 149.025 140.929V146H147.574V144.956H147.514C147.418 145.148 147.274 145.337 147.081 145.523C146.889 145.708 146.642 145.862 146.341 145.985C146.039 146.108 145.678 146.169 145.257 146.169ZM145.58 144.976C145.991 144.976 146.342 144.895 146.634 144.732C146.929 144.57 147.153 144.358 147.305 144.096C147.461 143.831 147.539 143.547 147.539 143.246V142.261C147.486 142.314 147.383 142.364 147.23 142.411C147.081 142.454 146.911 142.492 146.718 142.525C146.526 142.555 146.339 142.583 146.157 142.609C145.974 142.633 145.822 142.652 145.699 142.669C145.411 142.705 145.147 142.767 144.909 142.853C144.673 142.939 144.484 143.063 144.342 143.226C144.203 143.385 144.133 143.597 144.133 143.862C144.133 144.23 144.269 144.509 144.541 144.697C144.813 144.883 145.159 144.976 145.58 144.976ZM153.864 146.149C153.247 146.149 152.697 145.992 152.213 145.677C151.733 145.359 151.355 144.906 151.08 144.32C150.808 143.73 150.672 143.022 150.672 142.197C150.672 141.371 150.81 140.665 151.085 140.079C151.363 139.492 151.744 139.043 152.228 138.732C152.712 138.42 153.261 138.264 153.874 138.264C154.348 138.264 154.729 138.344 155.017 138.503C155.309 138.659 155.534 138.841 155.693 139.05C155.856 139.259 155.982 139.442 156.071 139.602H156.161V135.818H157.647V146H156.195V144.812H156.071C155.982 144.974 155.852 145.16 155.683 145.369C155.518 145.577 155.289 145.76 154.997 145.915C154.706 146.071 154.328 146.149 153.864 146.149ZM154.192 144.881C154.619 144.881 154.981 144.769 155.276 144.543C155.574 144.315 155.799 143.998 155.952 143.594C156.108 143.189 156.186 142.719 156.186 142.182C156.186 141.652 156.109 141.187 155.957 140.79C155.804 140.392 155.581 140.082 155.286 139.86C154.991 139.638 154.626 139.527 154.192 139.527C153.744 139.527 153.372 139.643 153.073 139.875C152.775 140.107 152.55 140.424 152.397 140.825C152.248 141.226 152.173 141.678 152.173 142.182C152.173 142.692 152.25 143.151 152.402 143.559C152.555 143.967 152.78 144.29 153.078 144.528C153.38 144.764 153.751 144.881 154.192 144.881ZM163.593 146V135.818H167.222C168.015 135.818 168.671 135.962 169.191 136.251C169.712 136.539 170.101 136.933 170.36 137.434C170.618 137.931 170.747 138.491 170.747 139.114C170.747 139.741 170.616 140.304 170.355 140.805C170.096 141.302 169.705 141.696 169.181 141.988C168.661 142.276 168.006 142.42 167.218 142.42H164.722V141.118H167.078C167.579 141.118 167.985 141.032 168.296 140.859C168.608 140.684 168.837 140.445 168.982 140.143C169.128 139.842 169.201 139.499 169.201 139.114C169.201 138.73 169.128 138.388 168.982 138.09C168.837 137.792 168.606 137.558 168.291 137.389C167.98 137.22 167.569 137.136 167.058 137.136H165.129V146H163.593ZM173.915 141.466V146H172.429V135.818H173.896V139.607H173.99C174.169 139.196 174.442 138.869 174.81 138.627C175.178 138.385 175.659 138.264 176.252 138.264C176.776 138.264 177.233 138.372 177.624 138.587C178.019 138.803 178.324 139.124 178.539 139.552C178.758 139.976 178.867 140.506 178.867 141.143V146H177.381V141.322C177.381 140.762 177.237 140.327 176.948 140.019C176.66 139.708 176.259 139.552 175.745 139.552C175.394 139.552 175.079 139.626 174.8 139.776C174.525 139.925 174.308 140.143 174.149 140.432C173.993 140.717 173.915 141.062 173.915 141.466ZM184.067 146.154C183.352 146.154 182.727 145.99 182.193 145.662C181.66 145.334 181.245 144.875 180.95 144.285C180.655 143.695 180.508 143.005 180.508 142.217C180.508 141.424 180.655 140.732 180.95 140.138C181.245 139.545 181.66 139.085 182.193 138.756C182.727 138.428 183.352 138.264 184.067 138.264C184.783 138.264 185.408 138.428 185.942 138.756C186.475 139.085 186.89 139.545 187.185 140.138C187.48 140.732 187.627 141.424 187.627 142.217C187.627 143.005 187.48 143.695 187.185 144.285C186.89 144.875 186.475 145.334 185.942 145.662C185.408 145.99 184.783 146.154 184.067 146.154ZM184.072 144.906C184.536 144.906 184.921 144.784 185.226 144.538C185.531 144.293 185.756 143.967 185.902 143.559C186.051 143.151 186.126 142.702 186.126 142.212C186.126 141.724 186.051 141.277 185.902 140.869C185.756 140.458 185.531 140.129 185.226 139.88C184.921 139.631 184.536 139.507 184.072 139.507C183.605 139.507 183.217 139.631 182.909 139.88C182.604 140.129 182.377 140.458 182.228 140.869C182.082 141.277 182.009 141.724 182.009 142.212C182.009 142.702 182.082 143.151 182.228 143.559C182.377 143.967 182.604 144.293 182.909 144.538C183.217 144.784 183.605 144.906 184.072 144.906ZM192.851 138.364V139.557H188.68V138.364H192.851ZM189.798 136.534H191.285V143.758C191.285 144.046 191.328 144.263 191.414 144.409C191.5 144.552 191.611 144.649 191.747 144.702C191.887 144.752 192.037 144.777 192.2 144.777C192.319 144.777 192.423 144.769 192.513 144.752C192.602 144.736 192.672 144.722 192.722 144.712L192.99 145.94C192.904 145.973 192.781 146.007 192.622 146.04C192.463 146.076 192.264 146.096 192.026 146.099C191.635 146.106 191.27 146.036 190.932 145.891C190.594 145.745 190.32 145.519 190.112 145.214C189.903 144.91 189.798 144.527 189.798 144.066V136.534ZM197.63 146.154C196.914 146.154 196.289 145.99 195.756 145.662C195.222 145.334 194.808 144.875 194.513 144.285C194.218 143.695 194.07 143.005 194.07 142.217C194.07 141.424 194.218 140.732 194.513 140.138C194.808 139.545 195.222 139.085 195.756 138.756C196.289 138.428 196.914 138.264 197.63 138.264C198.346 138.264 198.971 138.428 199.504 138.756C200.038 139.085 200.452 139.545 200.747 140.138C201.042 140.732 201.19 141.424 201.19 142.217C201.19 143.005 201.042 143.695 200.747 144.285C200.452 144.875 200.038 145.334 199.504 145.662C198.971 145.99 198.346 146.154 197.63 146.154ZM197.635 144.906C198.099 144.906 198.483 144.784 198.788 144.538C199.093 144.293 199.319 143.967 199.464 143.559C199.614 143.151 199.688 142.702 199.688 142.212C199.688 141.724 199.614 141.277 199.464 140.869C199.319 140.458 199.093 140.129 198.788 139.88C198.483 139.631 198.099 139.507 197.635 139.507C197.168 139.507 196.78 139.631 196.472 139.88C196.167 140.129 195.94 140.458 195.79 140.869C195.645 141.277 195.572 141.724 195.572 142.212C195.572 142.702 195.645 143.151 195.79 143.559C195.94 143.967 196.167 144.293 196.472 144.538C196.78 144.784 197.168 144.906 197.635 144.906Z" fill="#929C6C"/>
<path d="M187 116.222V68.7778C187 65.05 183.95 62 180.222 62H132.778C129.05 62 126 65.05 126 68.7778V116.222C126 119.95 129.05 123 132.778 123H180.222C183.95 123 187 119.95 187 116.222ZM144.639 97.5833L153.111 107.784L164.972 92.5L180.222 112.833H132.778L144.639 97.5833Z" fill="#929C6C"/>
</svg>
