<svg width="48" height="48" viewBox="0 0 48 48" fill="none" xmlns="http://www.w3.org/2000/svg">
<rect width="48" height="48" rx="24" fill="white"/>
<mask id="mask0_44_25" style="mask-type:alpha" maskUnits="userSpaceOnUse" x="8" y="8" width="32" height="32">
<rect x="8" y="8" width="32" height="32" fill="#D9D9D9"/>
</mask>
<g mask="url(#mask0_44_25)">
<path d="M17.3334 36C16.6 36 15.9723 35.7389 15.45 35.2167C14.9278 34.6944 14.6667 34.0667 14.6667 33.3333V16C14.2889 16 13.9723 15.8722 13.7167 15.6167C13.4612 15.3611 13.3334 15.0444 13.3334 14.6667C13.3334 14.2889 13.4612 13.9722 13.7167 13.7167C13.9723 13.4611 14.2889 13.3333 14.6667 13.3333H20C20 12.9556 20.1278 12.6389 20.3834 12.3833C20.6389 12.1278 20.9556 12 21.3334 12H26.6667C27.0445 12 27.3612 12.1278 27.6167 12.3833C27.8723 12.6389 28 12.9556 28 13.3333H33.3334C33.7112 13.3333 34.0278 13.4611 34.2834 13.7167C34.5389 13.9722 34.6667 14.2889 34.6667 14.6667C34.6667 15.0444 34.5389 15.3611 34.2834 15.6167C34.0278 15.8722 33.7112 16 33.3334 16V33.3333C33.3334 34.0667 33.0723 34.6944 32.55 35.2167C32.0278 35.7389 31.4 36 30.6667 36H17.3334ZM30.6667 16H17.3334V33.3333H30.6667V16ZM21.3334 30.6667C21.7112 30.6667 22.0278 30.5389 22.2834 30.2833C22.5389 30.0278 22.6667 29.7111 22.6667 29.3333V20C22.6667 19.6222 22.5389 19.3056 22.2834 19.05C22.0278 18.7944 21.7112 18.6667 21.3334 18.6667C20.9556 18.6667 20.6389 18.7944 20.3834 19.05C20.1278 19.3056 20 19.6222 20 20V29.3333C20 29.7111 20.1278 30.0278 20.3834 30.2833C20.6389 30.5389 20.9556 30.6667 21.3334 30.6667ZM26.6667 30.6667C27.0445 30.6667 27.3612 30.5389 27.6167 30.2833C27.8723 30.0278 28 29.7111 28 29.3333V20C28 19.6222 27.8723 19.3056 27.6167 19.05C27.3612 18.7944 27.0445 18.6667 26.6667 18.6667C26.2889 18.6667 25.9723 18.7944 25.7167 19.05C25.4612 19.3056 25.3334 19.6222 25.3334 20V29.3333C25.3334 29.7111 25.4612 30.0278 25.7167 30.2833C25.9723 30.5389 26.2889 30.6667 26.6667 30.6667Z" fill="#D14747"/>
</g>
</svg>
